<svg height="512" viewBox="0 0 128 128" width="512" xmlns="http://www.w3.org/2000/svg"><g id="Document,-file,-folder-icon" fill="none" fill-rule="evenodd"><path id="Shape" d="m34 21c.307355 0 .5949905.1411038.7831675.3781638l.0743254.1073404 5.7085071 9.5144958h68.434c3.70491 0 6.737562 2.8782805 6.983851 6.520737l.01209.2386132.004059.2406498v62c0 3.785452-3.004783 6.869099-6.75935 6.995941l-.24065.004059h-90c-3.7854517 0-6.8690987-3.004783-6.995941-6.75935l-.004059-.24065v-72c0-3.7854517 3.0047834-6.8690987 6.7593502-6.995941l.2406498-.004059zm75 26h-90c-2.6887547 0-4.8818181 2.1223067-4.9953805 4.7831104l-.0046195.2168896v48c0 2.688755 2.1223067 4.881818 4.7831104 4.99538l.2168896.00462h90c2.688755 0 4.881818-2.122307 4.99538-4.78311l.00462-.21689v-48c0-2.6887547-2.122307-4.8818181-4.78311-4.9953805zm-75.566-24h-14.434c-2.6887547 0-4.8818181 2.1223067-4.9953805 4.7831104l-.0052458.2168896v19.1016565c1.2036897-1.2286657 2.8565758-2.0155845 4.6929164-2.0950145l.3077099-.006642h90c1.95951 0 3.730969.8051427 5.0016 2.1026501l-.0016-9.1026501c0-2.6887547-2.122307-4.8818181-4.78311-4.9953805l-.21689-.0046195h-69c-.307355 0-.5949905-.1411038-.7831675-.3781638l-.0743254-.1073404z" fill="rgb(0,0,0)" fill-rule="nonzero"/></g></svg>